{"title":"The Negotiator - Il negoziatore (1998).BRip.XviD - Italian Engli","uid":11832341,"size":2406531598,"categoryP":"video","categoryS":"movies","magnet":"?xt=urn:btih:5109eeace9fc483b596b2427a18763efcca30e93&amp;dn=The+Negotiator+-+Il+negoziatore+%281998%29.BRip.XviD+-+Italian+Engli&amp;tr=udp%3A%2F%2Ftracker.openbittorrent.com%3A80&amp;tr=udp%3A%2F%2Fopen.demonii.com%3A1337&amp;tr=udp%3A%2F%2Ftracker.coppersurfer.tk%3A6969&amp;tr=udp%3A%2F%2Fexodus.desync.com%3A6969","seeders":4,"leechers":0,"uploader":"robbyrs4","files":7,"time":1429635650,"description":"The Negotiator - Il negoziatore (1998).BRip.XviD - Italian English.Ac3.5.1.MultiSub.MIRCrew\n\n[center]  grazie a Max74 per il DBrip\n\n[color=red][b][img]http://s19.postimg.org/9qdjr7p77/Original_release_2.png[/img]\n\n[u]NO FOUND ONLY ORIGINAL RELEASE[/u]\n\nThe Negotiator - Il negoziatore (1998)\n\n[img]http://extraimago.com/images/2015/04/21/w.jpg[/img]\n\n\n[URL=http://www.imdb.com/title/tt0120768/][IMG]http://www.userlogos.org/files/logos/Sucka/imdb_new.png[/IMG][/URL]  \n\n[img]http://s19.postimg.org/vz5tzn42b/1_scheda.png[/img]\n\nTitolo originale \tThe Negotiator\nPaese di produzione \tStati Uniti\nAnno \t1998\nDurata \t135 min\nGenere \tazione\nRegia \tF. Gary Gray\nSoggetto \tF. Gary Gray\nSceneggiatura \tJames Demonaco Kevin Fox\nFotografia \tRussell Carpenter Ann\nMontaggio \tChristian Wagner Shore\nEffetti speciali \tDaniel Sudick Ayers\nMusiche \tGraeme Revell\nScenografia \tHolger gross Dreville\n\n[img]http://s19.postimg.org/q8fnlww2b/1_cast.png[/img]\n\n\n    Samuel L. Jackson: Danny Roman (Il negoziatore)\n    Kevin Spacey: Chris Sabian\n    Vanessa Zima: Michelle\n    David Morse: Adam Beck\n    Ron Rifkin: Grant Frost\n    John Spencer: Comandante Al Travis\n    Kenan Thompson: Tonys Beck\n    J.T. Walsh: Terence Niebaum\n    Siobhan Fallon: Maggie\n    Paul Giamatti: Rudy Timmons\n    Regina Taylor: Karen Roman\n    Bruce Beatty: Markus\n    Paul Guilfoyle: Nathan\n    Nestor Serrano: Hellman\n\n  \n[img]http://s19.postimg.org/okgi79i6r/1_trama.png[/img]. \n\nDanny Roman, il miglior negoziatore di Chicago in casi di rapimento, si ritrova vittima di un complotto: una serie di accuse di omicidio e di malversazione nel gestire i fondi pensione della polizia sembrano inchiodarlo senza alcuna via di scampo. Nella speranza di dimostrare la propria innocenza, Danny decide di entrare nel quartier generale del Dipartimento per gli Affari Interni e prendere in ostaggio il personale dell'ufficio..........\n\n[img]http://s19.postimg.org/fzn6g380j/1_story.png[/img]\n\nIn a desperate attempt to prove his innocence, a skilled police negotiator accused of corruption and murder takes hostages in a government office to gain the time he needs to find the truth..............\n &lt;a href=&quot;\nhttp://extraimago.com/images/2015/04/21/vlcsnap-2015-04-21-16h53m26s244.png[/img]&quot; rel=&quot;nofollow&quot; target=&quot;_NEW&quot;&gt;\nhttp://extraimago.com/images/2015/04/21/vlcsnap-2015-04-21-16h53m26s244.png[/img]&lt;/a&gt; &lt;a href=&quot;\nhttp://extraimago.com/images/2015/04/21/vlcsnap-2015-04-21-16h53m41s157.png[/img]&quot; rel=&quot;nofollow&quot; target=&quot;_NEW&quot;&gt;\nhttp://extraimago.com/images/2015/04/21/vlcsnap-2015-04-21-16h53m41s157.png[/img]&lt;/a&gt; &lt;a href=&quot;\nhttp://extraimago.com/images/2015/04/21/vlcsnap-2015-04-21-16h53m46s197.png[/img]&quot; rel=&quot;nofollow&quot; target=&quot;_NEW&quot;&gt;\nhttp://extraimago.com/images/2015/04/21/vlcsnap-2015-04-21-16h53m46s197.png[/img]&lt;/a&gt;\n\n\n[IMG]http://img153.imageshack.us/img153/3158/restateinseedblood.gif[/img]\n\n\n[img]http://imgur.com/lvhU6.gif[/img]\n\n\n[img]http://s19.postimg.org/a2jaz9qvn/1_dati.png[/img]\n\n\n[spoiler]\nGeneral\nComplete name                            : The Negotiator (1998).ita.eng.sub.ita.eng.NUita.MIRCrewThe Negotiator (1998).ita.eng.sub.ita.eng.NUita.MIRCrew.avi\nFormat                                   : AVI\nFormat/Info                              : Audio Video Interleave\nFormat profile                           : OpenDML\nFile size                                : 2.20 GiB\nDuration                                 : 2h 19mn\nOverall bit rate                         : 2 260 Kbps\nMovie name                               : MIRCrew by robbyrs\nWriting application                      : VirtualDubMod 1.5.10.2 (build 2540/release)\nWriting library                          : VirtualDubMod build 2540/release\n\nVideo\nID                                       : 0\nFormat                                   : MPEG-4 Visual\nFormat profile                           : Simple@L3\nFormat settings, BVOP                    : No\nFormat settings, QPel                    : No\nFormat settings, GMC                     : No warppoints\nFormat settings, Matrix                  : Default (H.263)\nCodec ID                                 : XVID\nCodec ID/Hint                            : XviD\nDuration                                 : 2h 19mn\nBit rate                                 : 1 346 Kbps\nWidth                                    : 720 pixels\nHeight                                   : 300 pixels\nDisplay aspect ratio                     : 2.40:1\nFrame rate                               : 23.976 fps\nColor space                              : YUV\nChroma subsampling                       : 4:2:0\nBit depth                                : 8 bits\nScan type                                : Progressive\nCompression mode                         : Lossy\nBits/(Pixel*Frame)                       : 0.260\nStream size                              : 1.31 GiB (60%)\nWriting library                          : XviD 64\n\nAudio #1\nID                                       : 1\nFormat                                   : AC-3\nFormat/Info                              : Audio Coding 3\nMode extension                           : CM (complete main)\nCodec ID                                 : 2000\nDuration                                 : 2h 19mn\nBit rate mode                            : Constant\nBit rate                                 : 448 Kbps\nChannel(s)                               : 6 channels\nChannel positions                        : Front: L C R, Side: L R, LFE\nSampling rate                            : 48.0 KHz\nBit depth                                : 16 bits\nCompression mode                         : Lossy\nStream size                              : 447 MiB (20%)\nAlignment                                : Split accross interleaves\nInterleave, duration                     : 42 ms (1.00 video frame)\nInterleave, preload duration             : 500 ms\n\nAudio #2\nID                                       : 2\nFormat                                   : AC-3\nFormat/Info                              : Audio Coding 3\nMode extension                           : CM (complete main)\nCodec ID                                 : 2000\nDuration                                 : 2h 19mn\nBit rate mode                            : Constant\nBit rate                                 : 448 Kbps\nChannel(s)                               : 6 channels\nChannel positions                        : Front: L C R, Side: L R, LFE\nSampling rate                            : 48.0 KHz\nBit depth                                : 16 bits\nCompression mode                         : Lossy\nStream size                              : 447 MiB (20%)\nAlignment                                : Split accross interleaves\nInterleave, duration                     : 42 ms (1.00 video frame)\nInterleave, preload duration             : 500 ms\n\n\n\n\n[/spoiler]\n\n[/color][/b][/center]","torrent":{"xt":"urn:btih:5109eeace9fc483b596b2427a18763efcca30e93","amp;dn":"The+Negotiator+-+Il+negoziatore+%281998%29.BRip.XviD+-+Italian+Engli","amp;tr":["udp%3A%2F%2Ftracker.openbittorrent.com%3A80","udp%3A%2F%2Fopen.demonii.com%3A1337","udp%3A%2F%2Ftracker.coppersurfer.tk%3A6969","udp%3A%2F%2Fexodus.desync.com%3A6969"],"infoHash":"5109eeace9fc483b596b2427a18763efcca30e93","infoHashBuffer":{"type":"Buffer","data":[81,9,238,172,233,252,72,59,89,107,36,39,161,135,99,239,204,163,14,147]},"announce":[],"urlList":[]}}